<svg id="visual" viewBox="0 0 900 900" preserveAspectRatio="xMidYMid meet" width="900" height="900" xmlns="http://www.w3.org/2000/svg" xmlns:xlink="http://www.w3.org/1999/xlink" version="1.1"><g transform="translate(456.04641174358846 462.36214224963857)">
<path d="M220.7 -310.1C276.8 -263 306.7 -186.2 333.6 -107.5C360.5 -28.7 384.2 51.9 369.2 126.6C354.1 201.4 300.2 270.2 232.2 304.9C164.2 339.7 82.1 340.3 -0.9 341.5C-83.9 342.8 -167.7 344.5 -225.6 306.5C-283.4 268.4 -315.3 190.6 -344.7 109.7C-374.1 28.8 -401 -55.1 -376.2 -119.4C-351.4 -183.7 -274.9 -228.4 -203.6 -270.5C-132.3 -312.7 -66.1 -352.4 8.1 -363.5C82.3 -374.6 164.6 -357.2 220.7 -310.1" fill="none" stroke="#009473" stroke-width="8">
</path></g></svg>